# xmcd
#
# Track frame offsets:
#	150
#	19790
#	38553
#	60415
#	90461
#	125884
#
# Disc length: 1994 seconds
#
# Revision: 0
# Processed by: cddbd v1.5.2PL0 Copyright (c) Steve Scherf et al.
# Submitted via: EasyCDDAExtractor 11.1.0.1
#
DISCID=4307c806
DTITLE=TONTO - Tontos Expanding Headband
DYEAR=1975
DGENRE=Classic Rock
TTITLE0=t01 Cybernaut
TTITLE1=t02 Jetsex
TTITLE2=t03 Timewhys
TTITLE3=t04 Aurora
TTITLE4=t05 Riversong
TTITLE5=t06 Tama
EXTD=
EXTT0=
EXTT1=
EXTT2=
EXTT3=
EXTT4=
EXTT5=
PLAYORDER=
